<svg width="29" height="30" viewBox="0 0 29 30" fill="none" xmlns="http://www.w3.org/2000/svg">
<g clip-path="url(#clip0_272_306)">
<path d="M29 15C29 6.71566 22.5082 0 14.5 0C6.4918 0 0 6.71566 0 15C0 22.4873 5.30328 28.6942 12.2377 29.8219V19.333H8.55738V15H12.2377V11.693C12.2377 7.93669 14.4016 5.85924 17.7131 5.85924C19.3033 5.85924 20.959 6.15602 20.959 6.15602V9.84454H19.1311C17.3279 9.84454 16.7705 10.9977 16.7705 12.1848V15H20.7951L20.1557 19.333H16.7787V29.8135C23.6967 28.6942 29 22.4873 29 15Z" fill="#337FFF"/>
<path d="M20.1474 19.3328L20.7868 14.9999H16.7622V12.1847C16.7622 10.9976 17.3278 9.84443 19.1228 9.84443H20.9507V6.15591C20.9507 6.15591 19.295 5.85913 17.7048 5.85913C14.3933 5.85913 12.2294 7.93658 12.2294 11.6929V14.9999H8.54907V19.3328H12.2294V29.8133C12.9671 29.9321 13.7212 29.9999 14.4917 29.9999C15.2622 29.9999 16.0163 29.9405 16.754 29.8133V19.3328H20.1474Z" fill="white"/>
</g>
<defs>
<clipPath id="clip0_272_306">
<rect width="29" height="30" fill="white"/>
</clipPath>
</defs>
</svg>
