<svg width="29" height="29" viewBox="0 0 29 29" fill="none" xmlns="http://www.w3.org/2000/svg">
<g clip-path="url(#clip0_272_311)">
<path d="M14.5 29C22.5081 29 29 22.5081 29 14.5C29 6.49187 22.5081 0 14.5 0C6.49187 0 0 6.49187 0 14.5C0 22.5081 6.49187 29 14.5 29Z" fill="url(#paint0_linear_272_311)"/>
<path d="M19 9.01636C18.4508 9.01636 18 9.45898 18 10.0164C18 10.5655 18.4426 11.0164 19 11.0164C19.5492 11.0164 20 10.5737 20 10.0164C20 9.45898 19.5492 9.01636 19 9.01636Z" fill="white"/>
<path d="M14.5738 10.2952C12.2623 10.2952 10.3853 12.1722 10.3853 14.4837C10.3853 16.7952 12.2623 18.6722 14.5738 18.6722C16.8853 18.6722 18.7623 16.7952 18.7623 14.4837C18.7541 12.1722 16.8771 10.2952 14.5738 10.2952ZM14.5738 17.164C13.0984 17.164 11.8935 15.9591 11.8935 14.4837C11.8935 13.0083 13.0984 11.8034 14.5738 11.8034C16.0492 11.8034 17.2541 13.0083 17.2541 14.4837C17.2541 15.9591 16.0492 17.164 14.5738 17.164Z" fill="white"/>
<path d="M17.8934 22.9836H11.1066C8.28689 22.9836 6 20.6886 6 17.8771V11.0902C6 8.27053 8.28689 5.98364 11.1066 5.98364H17.8934C20.7131 5.98364 23 8.27053 23 11.0902V17.8771C23 20.6886 20.7131 22.9836 17.8934 22.9836ZM11.1066 7.582C9.17213 7.582 7.59836 9.15577 7.59836 11.0902V17.8771C7.59836 19.8115 9.17213 21.3853 11.1066 21.3853H17.8934C19.8279 21.3853 21.4016 19.8115 21.4016 17.8771V11.0902C21.4016 9.15577 19.8279 7.582 17.8934 7.582H11.1066Z" fill="white"/>
</g>
<defs>
<linearGradient id="paint0_linear_272_311" x1="0.917705" y1="3.02852" x2="29.9133" y2="27.5181" gradientUnits="userSpaceOnUse">
<stop offset="0.0011048" stop-color="#FBE18A"/>
<stop offset="0.2094" stop-color="#FCBB45"/>
<stop offset="0.3765" stop-color="#F75274"/>
<stop offset="0.5238" stop-color="#D53692"/>
<stop offset="0.7394" stop-color="#8F39CE"/>
<stop offset="1" stop-color="#5B4FE9"/>
</linearGradient>
<clipPath id="clip0_272_311">
<rect width="29" height="29" fill="white"/>
</clipPath>
</defs>
</svg>
