<svg width="29" height="29" viewBox="0 0 29 29" fill="none" xmlns="http://www.w3.org/2000/svg">
<g clip-path="url(#clip0_272_319)">
<path d="M14.5 29C22.5081 29 29 22.5081 29 14.5C29 6.49187 22.5081 0 14.5 0C6.49187 0 0 6.49187 0 14.5C0 22.5081 6.49187 29 14.5 29Z" fill="#FF0000"/>
<path d="M22.2624 12.4262C22.2624 10.5 20.705 8.94263 18.7788 8.94263H9.87716C7.95093 8.94263 6.39355 10.5 6.39355 12.4262V16.5738C6.39355 18.5 7.95093 20.0574 9.87716 20.0574H18.7788C20.705 20.0574 22.2624 18.5 22.2624 16.5738V12.4262ZM17.0247 14.8115L13.0329 16.7869C12.8772 16.8689 12.3444 16.7623 12.3444 16.582V12.5246C12.3444 12.3443 12.8772 12.2295 13.0411 12.3197L16.8608 14.4016C17.0247 14.4918 17.1886 14.7213 17.0247 14.8115Z" fill="white"/>
</g>
<defs>
<clipPath id="clip0_272_319">
<rect width="29" height="29" fill="white"/>
</clipPath>
</defs>
</svg>
